<mxfile host="app.diagrams.net" modified="2024-02-24T17:42:16.561Z" agent="Mozilla/5.0 (Macintosh; Intel Mac OS X 10_15_7) AppleWebKit/537.36 (KHTML, like Gecko) Chrome/121.0.0.0 Safari/537.36" version="23.1.6" etag="-rxvlbuevLmSWSwJoulq" type="github">
  <diagram name="페이지-1" id="mr5zkpp1JWB-6w2k-qeT">
    <mxGraphModel>
      <root>
        <mxCell id="0" />
        <mxCell id="1" parent="0" />
      </root>
    </mxGraphModel>
  </diagram>
</mxfile>
